/* XPM */
static char * xlogo_xpm[] = {
"100 100 4 1",
" 	c #333373733E3E",
".	c #B6B6E2E20D0D",
"X	c #9F9FB6B6CDCD",
"o	c #000047470000",
"                         .......XXXXXXXXXXXXXXXXXXXXXXXXXXXXXXXXXXXXXXXXXXXXXXXXXXXXXXXXXXX         ",
"X                         .......XXXXXXXXXXXXXXXXXXXXXXXXXXXXXXXXXXXXXXXXXXXXXXXXXXXXXXXXXX        o",
"XX                        .......XXXXXXXXXXXXXXXXXXXXXXXXXXXXXXXXXXXXXXXXXXXXXXXXXXXXXXXXX        oo",
"XXX                        .......XXXXXXXXXXXXXXXXXXXXXXXXXXXXXXXXXXXXXXXXXXXXXXXXXXXXXXX        ooo",
"XXX                         .......XXXXXXXXXXXXXXXXXXXXXXXXXXXXXXXXXXXXXXXXXXXXXXXXXXXXX         ooo",
"XXXX                         .......XXXXXXXXXXXXXXXXXXXXXXXXXXXXXXXXXXXXXXXXXXXXXXXXXXXX        oooo",
"XXXXX                        .......XXXXXXXXXXXXXXXXXXXXXXXXXXXXXXXXXXXXXXXXXXXXXXXXXXX        ooooo",
"XXXXXX                        .......XXXXXXXXXXXXXXXXXXXXXXXXXXXXXXXXXXXXXXXXXXXXXXXXX        oooooo",
"XXXXXX                         .......XXXXXXXXXXXXXXXXXXXXXXXXXXXXXXXXXXXXXXXXXXXXXXX        ooooooo",
"XXXXXXX                         ......XXXXXXXXXXXXXXXXXXXXXXXXXXXXXXXXXXXXXXXXXXXXXX         ooooooX",
"XXXXXXXX                        .......XXXXXXXXXXXXXXXXXXXXXXXXXXXXXXXXXXXXXXXXXXXXX        oooooooX",
"XXXXXXXXX                        .......XXXXXXXXXXXXXXXXXXXXXXXXXXXXXXXXXXXXXXXXXXX        oooooooXX",
"XXXXXXXXX                         .......XXXXXXXXXXXXXXXXXXXXXXXXXXXXXXXXXXXXXXXXX        oooooooXXX",
"XXXXXXXXXX                         ......XXXXXXXXXXXXXXXXXXXXXXXXXXXXXXXXXXXXXXXX         ooooooXXXX",
"XXXXXXXXXXX                        .......XXXXXXXXXXXXXXXXXXXXXXXXXXXXXXXXXXXXXX         ooooooXXXXX",
"XXXXXXXXXXXX                        .......XXXXXXXXXXXXXXXXXXXXXXXXXXXXXXXXXXXXX        oooooooXXXXX",
"XXXXXXXXXXXX                         ......XXXXXXXXXXXXXXXXXXXXXXXXXXXXXXXXXXXX        oooooooXXXXXX",
"XXXXXXXXXXXXX                         ......XXXXXXXXXXXXXXXXXXXXXXXXXXXXXXXXXX        oooooooXXXXXXX",
"XXXXXXXXXXXXXX                        .......XXXXXXXXXXXXXXXXXXXXXXXXXXXXXXXX         ooooooXXXXXXXX",
"XXXXXXXXXXXXXXX                        .......XXXXXXXXXXXXXXXXXXXXXXXXXXXXXX         ooooooXXXXXXXXX",
"XXXXXXXXXXXXXXX                         ......XXXXXXXXXXXXXXXXXXXXXXXXXXXXXX        oooooooXXXXXXXXX",
"XXXXXXXXXXXXXXXX                         ......XXXXXXXXXXXXXXXXXXXXXXXXXXXX        oooooooXXXXXXXXXX",
"XXXXXXXXXXXXXXXXX                        .......XXXXXXXXXXXXXXXXXXXXXXXXXX        oooooooXXXXXXXXXXX",
"XXXXXXXXXXXXXXXXXX                        .......XXXXXXXXXXXXXXXXXXXXXXXX         ooooooXXXXXXXXXXXX",
"XXXXXXXXXXXXXXXXXX                         ......XXXXXXXXXXXXXXXXXXXXXXXX        ooooooXXXXXXXXXXXXX",
"XXXXXXXXXXXXXXXXXXX                        .......XXXXXXXXXXXXXXXXXXXXXX        oooooooXXXXXXXXXXXXX",
"XXXXXXXXXXXXXXXXXXXX                        .......XXXXXXXXXXXXXXXXXXXX        oooooooXXXXXXXXXXXXXX",
"XXXXXXXXXXXXXXXXXXXXX                        ......XXXXXXXXXXXXXXXXXXX        oooooooXXXXXXXXXXXXXXX",
"XXXXXXXXXXXXXXXXXXXXX                         ......XXXXXXXXXXXXXXXXX         ooooooXXXXXXXXXXXXXXXX",
"XXXXXXXXXXXXXXXXXXXXXX                        .......XXXXXXXXXXXXXXXX        ooooooXXXXXXXXXXXXXXXXX",
"XXXXXXXXXXXXXXXXXXXXXXX                        .......XXXXXXXXXXXXXX        oooooooXXXXXXXXXXXXXXXXX",
"XXXXXXXXXXXXXXXXXXXXXXXX                        ......XXXXXXXXXXXXX        oooooooXXXXXXXXXXXXXXXXXX",
"XXXXXXXXXXXXXXXXXXXXXXXX                         ......XXXXXXXXXXX        oooooooXXXXXXXXXXXXXXXXXXX",
"XXXXXXXXXXXXXXXXXXXXXXXXX                        .......XXXXXXXXX         ooooooXXXXXXXXXXXXXXXXXXXX",
"XXXXXXXXXXXXXXXXXXXXXXXXXX                        ......XXXXXXXXX        ooooooXXXXXXXXXXXXXXXXXXXXX",
"XXXXXXXXXXXXXXXXXXXXXXXXXXX                        ......XXXXXXX        oooooooXXXXXXXXXXXXXXXXXXXXX",
"XXXXXXXXXXXXXXXXXXXXXXXXXXX                         ......XXXXX        oooooooXXXXXXXXXXXXXXXXXXXXXX",
"XXXXXXXXXXXXXXXXXXXXXXXXXXXX                        .......XXX         ooooooXXXXXXXXXXXXXXXXXXXXXXX",
"XXXXXXXXXXXXXXXXXXXXXXXXXXXXX                        ......XX         ooooooXXXXXXXXXXXXXXXXXXXXXXXX",
"XXXXXXXXXXXXXXXXXXXXXXXXXXXXXX                        ......X        ooooooXXXXXXXXXXXXXXXXXXXXXXXXX",
"XXXXXXXXXXXXXXXXXXXXXXXXXXXXXX                         ......       oooooooXXXXXXXXXXXXXXXXXXXXXXXXX",
"XXXXXXXXXXXXXXXXXXXXXXXXXXXXXXX                        ....        oooooooXXXXXXXXXXXXXXXXXXXXXXXXXX",
"XXXXXXXXXXXXXXXXXXXXXXXXXXXXXXXX                       ooo         ooooooXXXXXXXXXXXXXXXXXXXXXXXXXXX",
"XXXXXXXXXXXXXXXXXXXXXXXXXXXXXXXXX                     oooo        ooooooXXXXXXXXXXXXXXXXXXXXXXXXXXXX",
"XXXXXXXXXXXXXXXXXXXXXXXXXXXXXXXXX                     ooo        ooooooXXXXXXXXXXXXXXXXXXXXXXXXXXXXX",
"XXXXXXXXXXXXXXXXXXXXXXXXXXXXXXXXXX                   ooo        oooooooXXXXXXXXXXXXXXXXXXXXXXXXXXXXX",
"XXXXXXXXXXXXXXXXXXXXXXXXXXXXXXXXXXX                 ooo        oooooooXXXXXXXXXXXXXXXXXXXXXXXXXXXXXX",
"XXXXXXXXXXXXXXXXXXXXXXXXXXXXXXXXXXXX               ooo         ooooooXXXXXXXXXXXXXXXXXXXXXXXXXXXXXXX",
"XXXXXXXXXXXXXXXXXXXXXXXXXXXXXXXXXXXX              oooo        oooo...XXXXXXXXXXXXXXXXXXXXXXXXXXXXXXX",
"XXXXXXXXXXXXXXXXXXXXXXXXXXXXXXXXXXXXX             ooo        o.......XXXXXXXXXXXXXXXXXXXXXXXXXXXXXXX",
"XXXXXXXXXXXXXXXXXXXXXXXXXXXXXXXXXXXXXX           ooo          ........XXXXXXXXXXXXXXXXXXXXXXXXXXXXXX",
"XXXXXXXXXXXXXXXXXXXXXXXXXXXXXXXXXXXXXXX         oooo           .......XXXXXXXXXXXXXXXXXXXXXXXXXXXXXX",
"XXXXXXXXXXXXXXXXXXXXXXXXXXXXXXXXXXXXXX         oooo             .......XXXXXXXXXXXXXXXXXXXXXXXXXXXXX",
"XXXXXXXXXXXXXXXXXXXXXXXXXXXXXXXXXXXXXX        oooo               .......XXXXXXXXXXXXXXXXXXXXXXXXXXXX",
"XXXXXXXXXXXXXXXXXXXXXXXXXXXXXXXXXXXXX         oooo                .......XXXXXXXXXXXXXXXXXXXXXXXXXXX",
"XXXXXXXXXXXXXXXXXXXXXXXXXXXXXXXXXXXX         oooo                 .......XXXXXXXXXXXXXXXXXXXXXXXXXXX",
"XXXXXXXXXXXXXXXXXXXXXXXXXXXXXXXXXXX         oooo                   .......XXXXXXXXXXXXXXXXXXXXXXXXXX",
"XXXXXXXXXXXXXXXXXXXXXXXXXXXXXXXXXX         oooo                     .......XXXXXXXXXXXXXXXXXXXXXXXXX",
"XXXXXXXXXXXXXXXXXXXXXXXXXXXXXXXXXX         oooo                      .......XXXXXXXXXXXXXXXXXXXXXXXX",
"XXXXXXXXXXXXXXXXXXXXXXXXXXXXXXXXX         oooo                       .......XXXXXXXXXXXXXXXXXXXXXXXX",
"XXXXXXXXXXXXXXXXXXXXXXXXXXXXXXXX         oooooo                       .......XXXXXXXXXXXXXXXXXXXXXXX",
"XXXXXXXXXXXXXXXXXXXXXXXXXXXXXXX         ooooooo                        .......XXXXXXXXXXXXXXXXXXXXXX",
"XXXXXXXXXXXXXXXXXXXXXXXXXXXXXXX        ooooooooo                        .......XXXXXXXXXXXXXXXXXXXXX",
"XXXXXXXXXXXXXXXXXXXXXXXXXXXXXX         ooooooooX                        .......XXXXXXXXXXXXXXXXXXXXX",
"XXXXXXXXXXXXXXXXXXXXXXXXXXXXX         ooooooooXX                         .......XXXXXXXXXXXXXXXXXXXX",
"XXXXXXXXXXXXXXXXXXXXXXXXXXXX         ooooooooXXXX                         .......XXXXXXXXXXXXXXXXXXX",
"XXXXXXXXXXXXXXXXXXXXXXXXXXX         oooooooooXXXXX                         ......XXXXXXXXXXXXXXXXXXX",
"XXXXXXXXXXXXXXXXXXXXXXXXXXX        oooooooooXXXXXXX                        .......XXXXXXXXXXXXXXXXXX",
"XXXXXXXXXXXXXXXXXXXXXXXXXX         ooooooooXXXXXXXX                         .......XXXXXXXXXXXXXXXXX",
"XXXXXXXXXXXXXXXXXXXXXXXXX         ooooooooXXXXXXXXXX                         .......XXXXXXXXXXXXXXXX",
"XXXXXXXXXXXXXXXXXXXXXXXX         ooooooooXXXXXXXXXXXX                         ......XXXXXXXXXXXXXXXX",
"XXXXXXXXXXXXXXXXXXXXXXX         ooooooooXXXXXXXXXXXXXX                        .......XXXXXXXXXXXXXXX",
"XXXXXXXXXXXXXXXXXXXXXXX        oooooooooXXXXXXXXXXXXXX                         .......XXXXXXXXXXXXXX",
"XXXXXXXXXXXXXXXXXXXXXX         ooooooooXXXXXXXXXXXXXXXX                         .......XXXXXXXXXXXXX",
"XXXXXXXXXXXXXXXXXXXXX         ooooooooXXXXXXXXXXXXXXXXXX                         ......XXXXXXXXXXXXX",
"XXXXXXXXXXXXXXXXXXXX         ooooooooXXXXXXXXXXXXXXXXXXXX                         ......XXXXXXXXXXXX",
"XXXXXXXXXXXXXXXXXXX         ooooooooXXXXXXXXXXXXXXXXXXXXX                         .......XXXXXXXXXXX",
"XXXXXXXXXXXXXXXXXXX        ooooooooXXXXXXXXXXXXXXXXXXXXXXX                         .......XXXXXXXXXX",
"XXXXXXXXXXXXXXXXXX         ooooooooXXXXXXXXXXXXXXXXXXXXXXXX                         ......XXXXXXXXXX",
"XXXXXXXXXXXXXXXXX         ooooooooXXXXXXXXXXXXXXXXXXXXXXXXXX                         ......XXXXXXXXX",
"XXXXXXXXXXXXXXXX         ooooooooXXXXXXXXXXXXXXXXXXXXXXXXXXX                         .......XXXXXXXX",
"XXXXXXXXXXXXXXXX        ooooooooXXXXXXXXXXXXXXXXXXXXXXXXXXXXX                         ......XXXXXXXX",
"XXXXXXXXXXXXXXX        ooooooooXXXXXXXXXXXXXXXXXXXXXXXXXXXXXXX                         ......XXXXXXX",
"XXXXXXXXXXXXXX         oooooooXXXXXXXXXXXXXXXXXXXXXXXXXXXXXXXXX                         ......XXXXXX",
"XXXXXXXXXXXXX         ooooooooXXXXXXXXXXXXXXXXXXXXXXXXXXXXXXXXX                         .......XXXXX",
"XXXXXXXXXXXX         ooooooooXXXXXXXXXXXXXXXXXXXXXXXXXXXXXXXXXXX                         ......XXXXX",
"XXXXXXXXXXXX        ooooooooXXXXXXXXXXXXXXXXXXXXXXXXXXXXXXXXXXXXX                         ......XXXX",
"XXXXXXXXXXX         oooooooXXXXXXXXXXXXXXXXXXXXXXXXXXXXXXXXXXXXXXX                         ......XXX",
"XXXXXXXXXX         oooooooXXXXXXXXXXXXXXXXXXXXXXXXXXXXXXXXXXXXXXXX                         .......XX",
"XXXXXXXXX         oooooooXXXXXXXXXXXXXXXXXXXXXXXXXXXXXXXXXXXXXXXXXX                         ......XX",
"XXXXXXXX         ooooooooXXXXXXXXXXXXXXXXXXXXXXXXXXXXXXXXXXXXXXXXXXX                         ......X",
"XXXXXXXX        ooooooooXXXXXXXXXXXXXXXXXXXXXXXXXXXXXXXXXXXXXXXXXXXXX                         ......",
"XXXXXXX         oooooooXXXXXXXXXXXXXXXXXXXXXXXXXXXXXXXXXXXXXXXXXXXXXX                         ......",
"XXXXXX         oooooooXXXXXXXXXXXXXXXXXXXXXXXXXXXXXXXXXXXXXXXXXXXXXXXX                         .....",
"XXXXX         oooooooXXXXXXXXXXXXXXXXXXXXXXXXXXXXXXXXXXXXXXXXXXXXXXXXXX                         ....",
"XXXX         oooooooXXXXXXXXXXXXXXXXXXXXXXXXXXXXXXXXXXXXXXXXXXXXXXXXXXXX                         ...",
"XXXX        ooooooooXXXXXXXXXXXXXXXXXXXXXXXXXXXXXXXXXXXXXXXXXXXXXXXXXXXX                         ...",
"XXX         oooooooXXXXXXXXXXXXXXXXXXXXXXXXXXXXXXXXXXXXXXXXXXXXXXXXXXXXXX                         ..",
"XX         oooooooXXXXXXXXXXXXXXXXXXXXXXXXXXXXXXXXXXXXXXXXXXXXXXXXXXXXXXXX                         .",
"X         oooooooXXXXXXXXXXXXXXXXXXXXXXXXXXXXXXXXXXXXXXXXXXXXXXXXXXXXXXXXXX                        ."};
